<mxfile host="app.diagrams.net" modified="2023-12-13T13:04:26.108Z" agent="Mozilla/5.0 (Windows NT 10.0; Win64; x64) AppleWebKit/537.36 (KHTML, like Gecko) Chrome/120.0.0.0 Safari/537.36" etag="meBVBgVgXHVByjVaKnDc" version="22.1.8" type="github">
  <diagram name="Page-1" id="3gZcS7GnsqbprWWSpje0">
    <mxGraphModel dx="794" dy="456" grid="0" gridSize="10" guides="1" tooltips="1" connect="1" arrows="1" fold="1" page="1" pageScale="1" pageWidth="850" pageHeight="1100" math="0" shadow="0">
      <root>
        <mxCell id="0" />
        <mxCell id="1" parent="0" />
        <mxCell id="BP_pYmNcaPQZ-zgVF4ZZ-3" value="" style="edgeStyle=orthogonalEdgeStyle;rounded=0;orthogonalLoop=1;jettySize=auto;html=1;" parent="1" source="BP_pYmNcaPQZ-zgVF4ZZ-1" target="BP_pYmNcaPQZ-zgVF4ZZ-2" edge="1">
          <mxGeometry relative="1" as="geometry">
            <Array as="points">
              <mxPoint x="310" y="240" />
              <mxPoint x="310" y="240" />
            </Array>
          </mxGeometry>
        </mxCell>
        <mxCell id="BP_pYmNcaPQZ-zgVF4ZZ-1" value="Property Management &lt;br&gt;System (PMS)" style="whiteSpace=wrap;html=1;rounded=1;" parent="1" vertex="1">
          <mxGeometry x="150" y="200" width="120" height="70" as="geometry" />
        </mxCell>
        <mxCell id="BP_pYmNcaPQZ-zgVF4ZZ-5" value="" style="edgeStyle=orthogonalEdgeStyle;rounded=0;orthogonalLoop=1;jettySize=auto;html=1;" parent="1" source="BP_pYmNcaPQZ-zgVF4ZZ-2" target="BP_pYmNcaPQZ-zgVF4ZZ-4" edge="1">
          <mxGeometry relative="1" as="geometry" />
        </mxCell>
        <mxCell id="BP_pYmNcaPQZ-zgVF4ZZ-2" value="&lt;b&gt;Marriott Data Center&lt;/b&gt;&lt;br&gt;&lt;br&gt;IBM AIX Server&lt;br&gt;IBL MQ&lt;br&gt;sFTP Server" style="whiteSpace=wrap;html=1;rounded=1;" parent="1" vertex="1">
          <mxGeometry x="350" y="173" width="120" height="123" as="geometry" />
        </mxCell>
        <mxCell id="BP_pYmNcaPQZ-zgVF4ZZ-4" value="&lt;b&gt;Accenture Private Cloud&lt;br&gt;&lt;br&gt;&lt;br&gt;&lt;br&gt;&lt;br&gt;&lt;br&gt;Oracle&lt;br&gt;PeopelSoft&lt;br&gt;&lt;/b&gt;" style="whiteSpace=wrap;html=1;rounded=1;" parent="1" vertex="1">
          <mxGeometry x="550" y="150" width="150" height="170" as="geometry" />
        </mxCell>
        <mxCell id="BP_pYmNcaPQZ-zgVF4ZZ-6" value="" style="verticalLabelPosition=bottom;html=1;verticalAlign=top;strokeWidth=1;align=center;outlineConnect=0;dashed=0;outlineConnect=0;shape=mxgraph.aws3d.file;aspect=fixed;strokeColor=#292929;" parent="1" vertex="1">
          <mxGeometry x="570" y="211.16" width="20.8" height="47.68" as="geometry" />
        </mxCell>
        <mxCell id="BP_pYmNcaPQZ-zgVF4ZZ-8" value="" style="verticalLabelPosition=bottom;html=1;verticalAlign=top;strokeWidth=1;align=center;outlineConnect=0;dashed=0;outlineConnect=0;shape=mxgraph.aws3d.file;aspect=fixed;strokeColor=#292929;" parent="1" vertex="1">
          <mxGeometry x="610" y="212.32" width="20.8" height="47.68" as="geometry" />
        </mxCell>
        <mxCell id="BP_pYmNcaPQZ-zgVF4ZZ-9" value="" style="verticalLabelPosition=bottom;html=1;verticalAlign=top;strokeWidth=1;align=center;outlineConnect=0;dashed=0;outlineConnect=0;shape=mxgraph.aws3d.file;aspect=fixed;strokeColor=#292929;" parent="1" vertex="1">
          <mxGeometry x="650" y="211.16" width="20.8" height="47.68" as="geometry" />
        </mxCell>
        <UserObject label="Files" placeholders="1" name="Variable" id="BP_pYmNcaPQZ-zgVF4ZZ-11">
          <mxCell style="text;html=1;strokeColor=none;fillColor=none;align=center;verticalAlign=middle;whiteSpace=wrap;overflow=hidden;" parent="1" vertex="1">
            <mxGeometry x="270" y="212.32" width="80" height="20" as="geometry" />
          </mxCell>
        </UserObject>
        <UserObject label="Files" placeholders="1" name="Variable" id="BP_pYmNcaPQZ-zgVF4ZZ-12">
          <mxCell style="text;html=1;strokeColor=none;fillColor=none;align=center;verticalAlign=middle;whiteSpace=wrap;overflow=hidden;" parent="1" vertex="1">
            <mxGeometry x="470" y="211.16" width="80" height="20" as="geometry" />
          </mxCell>
        </UserObject>
        <UserObject label="MQ/sFTP" placeholders="1" name="Variable" id="BP_pYmNcaPQZ-zgVF4ZZ-13">
          <mxCell style="text;html=1;strokeColor=none;fillColor=none;align=center;verticalAlign=middle;whiteSpace=wrap;overflow=hidden;" parent="1" vertex="1">
            <mxGeometry x="470" y="240" width="80" height="20" as="geometry" />
          </mxCell>
        </UserObject>
        <UserObject label="MQ/sFTP" placeholders="1" name="Variable" id="BP_pYmNcaPQZ-zgVF4ZZ-14">
          <mxCell style="text;html=1;strokeColor=none;fillColor=none;align=center;verticalAlign=middle;whiteSpace=wrap;overflow=hidden;" parent="1" vertex="1">
            <mxGeometry x="270" y="240" width="80" height="20" as="geometry" />
          </mxCell>
        </UserObject>
      </root>
    </mxGraphModel>
  </diagram>
</mxfile>
